<svg xmlns="http://www.w3.org/2000/svg" viewBox="0 0 180 29">
  <g>
    <path d="M169.12,28.81a10.87,10.87,0,1,0-10.86-10.88h0A10.87,10.87,0,0,0,169.12,28.81Zm0-4.46a6.41,6.41,0,1,0-6.4-6.42h0A6.41,6.41,0,0,0,169.12,24.35Z" style="fill: #fff;fill-rule: evenodd"/>
    <path d="M146.09,28.81a10.87,10.87,0,1,0-10.86-10.88h0a10.87,10.87,0,0,0,10.85,10.87Zm0-4.46a6.41,6.41,0,1,0-6.4-6.42h0A6.41,6.41,0,0,0,146.09,24.35Z" style="fill: #fff;fill-rule: evenodd"/>
    <path d="M134.25,17.86v.08a10.86,10.86,0,1,1-4.32-8.67V2.35a2.16,2.16,0,1,1,4.32,0h0Zm-10.87,6.49A6.41,6.41,0,1,0,117,17.91v0A6.41,6.41,0,0,0,123.38,24.35Z" style="fill: #fff;fill-rule: evenodd"/>
    <path d="M100.87,28.79A10.87,10.87,0,1,0,90,17.92a10.87,10.87,0,0,0,10.87,10.87Zm-.1-4.42A6.41,6.41,0,1,0,94.36,18v0A6.41,6.41,0,0,0,100.77,24.37Z" style="fill: #fff;fill-rule: evenodd"/>
  </g>
</svg>
